<svg width="31" height="31" viewBox="0 0 31 31" fill="none" xmlns="http://www.w3.org/2000/svg">
<path d="M5.6875 24.6458V10.0831H10.0902V5.6875H20.2499V14.4861H24.6458V24.6458H16.6931V20.2429H13.6403V24.6458H5.6875ZM7.04871 23.2846H10.0902V20.2429H7.04871V23.2846ZM7.04871 18.882H10.0902V15.847H7.04871V18.882ZM7.04871 14.4861H10.0902V11.4443H7.04871V14.4861ZM11.4514 18.882H14.4861V15.847H11.4514V18.882ZM11.4514 14.4861H14.4861V11.4443H11.4514V14.4861ZM11.4514 10.0831H14.4861V7.04844H11.4514V10.0831ZM15.8473 18.882H18.889V15.847H15.8473V18.882ZM15.8473 14.4861H18.889V11.4443H15.8473V14.4861ZM15.8473 10.0831H18.889V7.04844H15.8473V10.0831ZM20.2499 23.2846H23.2846V20.2429H20.2499V23.2846ZM20.2499 18.882H23.2846V15.847H20.2499V18.882Z" fill="white"/>
</svg>
