<svg width="40" height="50" viewBox="0 0 40 50" fill="none" xmlns="http://www.w3.org/2000/svg">
<path d="M30.5469 20.8451C28.3262 29.1331 19.8071 34.0516 11.519 31.8309C3.23096 29.6101 -1.68754 21.091 0.53324 12.8029C2.75402 4.51487 11.2731 -0.403631 19.5612 1.81715C27.8492 4.03793 32.7677 12.557 30.5469 20.8451Z" fill="#FFC600"/>
<path d="M22.6305 34.6416C20.1129 34.6416 17.78 34.1937 15.6317 33.2981C13.4834 32.4025 11.5868 31.171 9.94202 29.6037C8.33078 28.0043 7.072 26.1651 6.16568 24.086C5.25936 21.9748 4.8062 19.7198 4.8062 17.3208C4.8062 14.9218 5.25936 12.6827 6.16568 10.6036C7.072 8.49246 8.33078 6.65323 9.94202 5.08588C11.5868 3.48655 13.4834 2.23907 15.6317 1.34344C17.78 0.447813 20.1129 -4.49666e-08 22.6305 0C25.3159 1.08024e-07 27.8502 0.463806 30.2335 1.39142C32.0776 2.09918 33.7066 3.06764 35.1208 4.2968L32.4313 6.70535C31.3873 5.82342 30.1848 5.10767 28.8237 4.5581C26.8432 3.75843 24.7788 3.3586 22.6305 3.3586C20.65 3.3586 18.8206 3.72645 17.1422 4.46214C15.4639 5.16585 13.9869 6.15743 12.7113 7.4369C11.4693 8.68438 10.4959 10.1558 9.79096 11.8511C9.08605 13.5464 8.73359 15.3696 8.73359 17.3208C8.73359 19.272 9.08605 21.0952 9.79096 22.7905C10.4959 24.4858 11.4693 25.9732 12.7113 27.2526C13.9869 28.5001 15.4639 29.4917 17.1422 30.2274C18.8206 30.9311 20.65 31.283 22.6305 31.283C24.9802 31.283 27.0782 30.7872 28.9244 29.7956C30.8042 28.804 32.3147 27.4446 33.456 25.7173C34.6308 23.958 35.319 21.9908 35.5204 19.8157H25.2688V16.5531H39.4235C39.4235 16.5531 39.4478 17.219 39.4478 18.0405C39.4478 20.3755 39.0282 22.5506 38.189 24.5658C37.3498 26.5489 36.1582 28.3082 34.6141 29.8436C33.1035 31.3469 31.3245 32.5304 29.2768 33.3941C27.2292 34.2257 25.0138 34.6416 22.6305 34.6416Z" fill="black"/>
<path d="M17.3563 46.2537C17.9311 46.4078 18.2726 46.9993 18.1187 47.5741C17.8332 48.6394 17.0939 49.3206 16.2255 49.6439C15.394 49.9534 14.4641 49.9342 13.6484 49.7157C12.8329 49.4971 12.0188 49.0489 11.4534 48.3652C10.8629 47.651 10.5633 46.6915 10.8488 45.6262C11.0029 45.0513 11.5943 44.7098 12.1692 44.8638C12.7439 45.0179 13.0845 45.6092 12.9306 46.184C12.8454 46.5019 12.9178 46.7535 13.1146 46.9916C13.3364 47.2598 13.7254 47.5049 14.2062 47.6339C14.6872 47.7627 15.1475 47.7451 15.4738 47.6237C15.763 47.5159 15.9508 47.3339 16.0359 47.0161C16.19 46.4412 16.7815 46.0997 17.3563 46.2537Z" fill="black"/>
<path d="M11.6868 32.8845C11.9458 32.941 12.1567 33.0745 12.3197 33.2846C12.5025 33.4992 12.5563 33.7837 12.4792 34.1382L11.8656 40.609C11.8539 40.732 11.8613 40.8564 11.8883 40.977L11.9006 41.0329C12.1979 42.3607 15.204 43.1454 16.2899 43.3818C17.779 43.7058 19.8725 43.394 20.1928 43.4631C20.5115 43.5326 20.7368 43.7632 20.813 43.9255C20.9102 44.1326 20.971 44.3529 20.9211 44.5823C20.8667 44.8326 20.736 45.045 20.5312 45.2189C19.6111 46.0207 16.3751 45.3778 15.4042 45.1665C13.8538 44.829 11.938 44.0932 10.587 43.1923C10.1091 42.8736 9.77327 42.3821 9.65019 41.8211L9.62755 41.7169C9.56977 41.4531 9.55546 41.1814 9.58517 40.9129L10.3852 33.6822C10.4625 33.3278 10.6285 33.0908 10.884 32.9717C11.1595 32.8569 11.4277 32.8281 11.6868 32.8845Z" fill="black"/>
<path d="M20.9346 39.9403C21.5009 39.7634 22.1049 40.0765 22.2841 40.6426C22.4633 41.2095 22.1485 41.8152 21.582 41.9953L21.3462 41.2527C21.5623 41.9356 21.5808 41.9908 21.582 41.9953L21.5787 41.9964C21.5778 41.9966 21.5764 41.9972 21.5753 41.9975C21.5731 41.9982 21.5696 41.9984 21.5668 41.9993C21.561 42.001 21.5539 42.0042 21.5456 42.0067C21.5283 42.0118 21.5049 42.0171 21.477 42.0248C21.421 42.0401 21.3436 42.0612 21.247 42.0834C21.0535 42.1279 20.7804 42.1816 20.4415 42.2255C19.7644 42.3132 18.8144 42.363 17.6976 42.2182C16.5866 42.0741 15.5775 41.7716 14.855 41.5111C14.4917 41.3801 14.194 41.2571 13.9851 41.1658C13.881 41.1203 13.7979 41.0829 13.7396 41.0555C13.7109 41.0421 13.6872 41.0309 13.6705 41.0229C13.6625 41.019 13.6551 41.0149 13.6501 41.0123C13.6478 41.0112 13.6445 41.0102 13.6428 41.0094L13.6412 41.0079L13.6393 41.0074C13.1069 40.7421 12.89 40.095 13.155 39.5623C13.4036 39.063 13.9878 38.8412 14.4987 39.0337L14.6003 39.0771C14.6019 39.0781 14.605 39.0805 14.609 39.0825C14.6182 39.0869 14.6342 39.0942 14.6548 39.1039C14.6971 39.1237 14.7625 39.1537 14.8479 39.191C15.02 39.2662 15.2737 39.3712 15.5863 39.4838C16.2169 39.7112 17.0671 39.9625 17.9742 40.0802C18.8757 40.1971 19.6372 40.1572 20.1648 40.0889C20.4279 40.0548 20.6324 40.013 20.7645 39.9827C20.8297 39.9676 20.8773 39.9544 20.9056 39.9467C20.9189 39.943 20.9286 39.9401 20.9329 39.9388C20.934 39.9386 20.9355 39.9387 20.936 39.9386L20.9329 39.9388L20.9346 39.9403Z" fill="black"/>
<path d="M22.4239 36.4874C22.991 36.3085 23.5962 36.6215 23.7759 37.1883C23.9553 37.7556 23.6405 38.3621 23.0735 38.5419L22.7716 37.5895C23.0518 38.475 23.0723 38.5376 23.0735 38.5419L23.0716 38.5414L23.068 38.5435C23.0658 38.5442 23.0622 38.5453 23.0592 38.5462C23.053 38.5481 23.0443 38.5502 23.0351 38.5529C23.0163 38.5585 22.9905 38.5656 22.9597 38.5741C22.8972 38.5913 22.8097 38.6141 22.7006 38.6392C22.4819 38.6895 22.1722 38.7517 21.7866 38.8017C21.0158 38.9016 19.9327 38.9578 18.6589 38.7927C17.3911 38.6282 16.2384 38.2824 15.4109 37.984C14.9952 37.8342 14.6553 37.6935 14.4167 37.5892C14.2974 37.5371 14.2012 37.4943 14.135 37.4632L14.0356 37.4153C14.0331 37.4141 14.0303 37.4124 14.0286 37.4114L14.0257 37.4107L14.025 37.4095C14.028 37.4031 14.0651 37.3284 14.5049 36.4451L14.0239 37.4102C13.4911 37.1449 13.2746 36.4969 13.5398 35.9641C13.7886 35.4651 14.3727 35.243 14.8836 35.4355L14.9849 35.4799C14.987 35.4809 14.9916 35.4836 14.9964 35.486C15.0076 35.4914 15.0265 35.5002 15.0512 35.5118C15.1013 35.5353 15.1788 35.5714 15.2792 35.6153C15.481 35.7035 15.7771 35.8262 16.1419 35.9577C16.8777 36.2229 17.8725 36.517 18.9365 36.655C19.9948 36.7922 20.8883 36.7434 21.5094 36.6629C21.8192 36.6228 22.0606 36.5755 22.2179 36.5394C22.2961 36.5214 22.3544 36.5058 22.3892 36.4963C22.4058 36.4917 22.4181 36.4891 22.4239 36.4874Z" fill="black"/>
</svg>
