<svg width="32" height="32" viewBox="0 0 32 32" fill="none" xmlns="http://www.w3.org/2000/svg">
<path d="M15.2402 7C19.7914 7 23.4813 10.6891 23.4814 15.2402C23.4814 17.2156 22.785 19.0277 21.626 20.4473L25.0889 23.9102C25.4143 24.2356 25.4143 24.7625 25.0889 25.0879C24.7634 25.4133 24.2366 25.4133 23.9111 25.0879L20.4482 21.625C19.0285 22.7845 17.2161 23.4814 15.2402 23.4814C10.6891 23.4813 7 19.7914 7 15.2402C7.0001 10.6891 10.6891 7.0001 15.2402 7ZM15.2402 8.66602C11.6096 8.66611 8.66611 11.6096 8.66602 15.2402C8.66602 18.8709 11.6096 21.8144 15.2402 21.8145C18.871 21.8145 21.8145 18.871 21.8145 15.2402C21.8144 11.6096 18.8709 8.66602 15.2402 8.66602Z" fill="black"/>
</svg>
