<svg width="32" height="32" viewBox="0 0 32 32" fill="none" xmlns="http://www.w3.org/2000/svg">
<path d="M16.1113 15.079C14.828 15.079 13.7564 14.653 12.8967 13.8011C12.0369 12.9493 11.607 11.8862 11.607 10.612C11.607 9.3376 12.0369 8.27588 12.8967 7.42686C13.7564 6.57783 14.828 6.15332 16.1113 6.15332C17.3947 6.15332 18.4662 6.57783 19.326 7.42686C20.1858 8.27588 20.6157 9.3376 20.6157 10.612C20.6157 11.8862 20.1858 12.9493 19.326 13.8011C18.4662 14.653 17.3947 15.079 16.1113 15.079ZM6.11133 25.1533V22.5025C6.11133 21.8138 6.297 21.2019 6.66833 20.6669C7.03944 20.1321 7.52611 19.721 8.12833 19.4336C9.50344 18.8081 10.8486 18.3376 12.1637 18.022C13.4788 17.7063 14.7946 17.5484 16.111 17.5484C17.4274 17.5484 18.7411 17.7085 20.052 18.0287C21.3627 18.3488 22.7037 18.8191 24.075 19.4396C24.693 19.7265 25.1869 20.1365 25.5567 20.6695C25.9264 21.2028 26.1113 21.8138 26.1113 22.5025V25.1533H6.11133ZM7.78666 23.4934H24.436V22.5025C24.436 22.1842 24.3368 21.882 24.1383 21.5959C23.9397 21.3099 23.6777 21.0831 23.3523 20.9156C22.0954 20.3074 20.8806 19.8709 19.7077 19.606C18.5348 19.3409 17.336 19.2084 16.1113 19.2084C14.8867 19.2084 13.6819 19.3409 12.497 19.606C11.3123 19.8709 10.0989 20.3074 8.85666 20.9156C8.53133 21.0831 8.27166 21.3099 8.07766 21.5959C7.88366 21.882 7.78666 22.1842 7.78666 22.5025V23.4934ZM16.1113 13.4193C16.9107 13.4193 17.582 13.1502 18.1253 12.6118C18.6687 12.0735 18.9403 11.4082 18.9403 10.616C18.9403 9.82399 18.6687 9.15881 18.1253 8.62047C17.582 8.08212 16.9107 7.81295 16.1113 7.81295C15.312 7.81295 14.6407 8.08212 14.0973 8.62047C13.554 9.15881 13.2823 9.82399 13.2823 10.616C13.2823 11.4082 13.554 12.0735 14.0973 12.6118C14.6407 13.1502 15.312 13.4193 16.1113 13.4193Z" fill="black"/>
</svg>
