<svg width="75" height="7" viewBox="0 0 75 7" fill="none" xmlns="http://www.w3.org/2000/svg">
<path d="M1.13458 5.33691V0.877341H1.66811V4.81064H3.15275V5.33691H1.13458Z" fill="#231916" stroke="#231916" stroke-width="0.356875"/>
<path d="M10.5069 0.877342H11.0404V5.33691H10.5069V0.877342Z" fill="#231916" stroke="#231916" stroke-width="0.356875"/>
<path d="M22.9041 3.04696C22.876 3.73187 22.6503 4.28562 22.227 4.70822C21.8082 5.12707 21.2792 5.33691 20.6404 5.33691C20.3132 5.33691 20.0091 5.2728 19.7306 5.14331C19.4467 5.01507 19.1937 4.82521 18.9697 4.57582C18.7819 4.35765 18.6383 4.11616 18.5385 3.85053C18.4423 3.58031 18.3949 3.29428 18.3949 2.99242C18.3949 2.67433 18.4531 2.37622 18.5682 2.09809C18.6883 1.81664 18.8616 1.56433 19.0898 1.34241C19.3089 1.12133 19.5482 0.956449 19.8086 0.847364C20.0714 0.743276 20.3673 0.690399 20.6945 0.690399C21.1418 0.690399 21.5325 0.791157 21.8676 0.992672C22.1989 1.19377 22.4448 1.47731 22.6041 1.84412H21.9159C21.7727 1.65051 21.5886 1.50437 21.365 1.40361C21.1455 1.30286 20.9037 1.25206 20.6404 1.25206C20.4172 1.25206 20.2034 1.29453 19.9996 1.37905C19.7925 1.46357 19.6142 1.58639 19.4669 1.74752C19.2953 1.91656 19.1653 2.11267 19.0778 2.33375C18.9899 2.54776 18.9462 2.76884 18.9462 2.99825C18.9462 3.23641 18.9858 3.46582 19.0654 3.6869C19.1492 3.90507 19.2672 4.09451 19.4195 4.25523C19.5829 4.42052 19.7723 4.54959 19.9876 4.6416C20.2034 4.73861 20.4209 4.78733 20.6404 4.78733C20.9998 4.78733 21.3229 4.69198 21.6105 4.50254C21.9377 4.28937 22.1539 3.98543 22.2571 3.59031H20.6701V3.04696H22.9041Z" fill="#231916" stroke="#231916" stroke-width="0.356875"/>
<path d="M30.2592 5.33691V0.877341H30.7927V2.7322H32.7866V0.877341H33.3073V5.33691H32.7866V3.27638H30.7927V5.33691H30.2592Z" fill="#231916" stroke="#231916" stroke-width="0.356875"/>
<path d="M41.5907 5.33691V1.38488H40.6623V0.877341H43.0333V1.38488H42.1114V5.33691H41.5907Z" fill="#231916" stroke="#231916" stroke-width="0.356875"/>
<path d="M50.3871 0.877342H50.9198V5.33691H50.3871V0.877342Z" fill="#231916" stroke="#231916" stroke-width="0.356875"/>
<path d="M58.2742 5.33691V0.877341H58.8432L61.1609 4.44883V0.877341H61.675V5.33691H61.1489L58.8077 1.67508V5.33691H58.2742Z" fill="#231916" stroke="#231916" stroke-width="0.356875"/>
<path d="M73.5379 3.04696C73.5099 3.73187 73.2842 4.28562 72.8608 4.70822C72.442 5.12707 71.9126 5.33691 71.2751 5.33691C70.9471 5.33691 70.6429 5.2728 70.3644 5.14331C70.0805 5.01507 69.8276 4.82521 69.6035 4.57582C69.4158 4.35765 69.2722 4.11616 69.1732 3.85053C69.077 3.58031 69.0287 3.29428 69.0287 2.99242C69.0287 2.67433 69.0861 2.37622 69.2021 2.09809C69.3221 1.81664 69.4963 1.56433 69.7236 1.34241C69.9427 1.12133 70.1829 0.956449 70.4416 0.847364C70.7061 0.743276 71.0011 0.690399 71.3283 0.690399C71.7756 0.690399 72.1672 0.791157 72.5014 0.992672C72.8336 1.19377 73.0787 1.47731 73.238 1.84412H72.5497C72.4065 1.65051 72.2221 1.50437 71.9993 1.40361C71.7793 1.30286 71.5375 1.25206 71.2751 1.25206C71.051 1.25206 70.8373 1.29453 70.6335 1.37905C70.4255 1.46357 70.2481 1.58639 70.1008 1.74752C69.9291 1.91656 69.7991 2.11267 69.7116 2.33375C69.6238 2.54776 69.58 2.76884 69.58 2.99825C69.58 3.23641 69.6196 3.46582 69.6993 3.6869C69.783 3.90507 69.901 4.09451 70.0533 4.25523C70.2159 4.42052 70.4053 4.54959 70.6223 4.6416C70.8373 4.73861 71.0548 4.78733 71.2751 4.78733C71.6337 4.78733 71.9568 4.69198 72.2444 4.50254C72.5716 4.28937 72.7878 3.98543 72.8918 3.59031H71.304V3.04696H73.5379Z" fill="#231916" stroke="#231916" stroke-width="0.356875"/>
</svg>
