<svg width="74" height="7" viewBox="0 0 74 7" fill="none" xmlns="http://www.w3.org/2000/svg">
<path d="M1.24805 5.87012V0.964587H1.83493V5.29122H3.46803V5.87012H1.24805Z" fill="#231916" stroke="#231916" stroke-width="0.392563"/>
<path d="M10.4678 0.964588H11.0547V5.87012H10.4678V0.964588Z" fill="#231916" stroke="#231916" stroke-width="0.392563"/>
<path d="M23.0148 3.35117C22.9839 4.10457 22.7357 4.71369 22.27 5.17855C21.8093 5.63929 21.2274 5.87012 20.5248 5.87012C20.1648 5.87012 19.8303 5.79959 19.5239 5.65715C19.2117 5.51609 18.9334 5.30725 18.687 5.03291C18.4804 4.79293 18.3225 4.52729 18.2126 4.23509C18.1069 3.93786 18.0547 3.62322 18.0547 3.29118C18.0547 2.94127 18.1187 2.61335 18.2453 2.30741C18.3774 1.99781 18.568 1.72027 18.819 1.47616C19.0601 1.23297 19.3233 1.05161 19.6097 0.931612C19.8988 0.817115 20.2243 0.75895 20.5842 0.75895C21.0762 0.75895 21.5061 0.869784 21.8746 1.09145C22.2391 1.31266 22.5096 1.62455 22.6848 2.02804H21.9277C21.7702 1.81507 21.5678 1.65432 21.3218 1.54349C21.0803 1.43265 20.8143 1.37678 20.5248 1.37678C20.2792 1.37678 20.0441 1.42349 19.8199 1.51647C19.592 1.60944 19.3959 1.74454 19.2339 1.92179C19.0451 2.10773 18.9021 2.32344 18.8059 2.56664C18.7092 2.80204 18.6611 3.04524 18.6611 3.29759C18.6611 3.55956 18.7047 3.81191 18.7923 4.0551C18.8844 4.29509 19.0142 4.50348 19.1817 4.68026C19.3614 4.86208 19.5698 5.00406 19.8067 5.10527C20.0441 5.21199 20.2833 5.26557 20.5248 5.26557C20.9201 5.26557 21.2755 5.16069 21.5919 4.95231C21.9518 4.71781 22.1896 4.38348 22.3031 3.94885H20.5574V3.35117H23.0148Z" fill="#231916" stroke="#231916" stroke-width="0.392563"/>
<path d="M30.0151 5.87012V0.964587H30.602V3.00493H32.7952V0.964587H33.368V5.87012H32.7952V3.60353H30.602V5.87012H30.0151Z" fill="#231916" stroke="#231916" stroke-width="0.392563"/>
<path d="M41.3894 5.87012V1.52288H40.3682V0.964587H42.9762V1.52288H41.9622V5.87012H41.3894Z" fill="#231916" stroke="#231916" stroke-width="0.392563"/>
<path d="M49.9761 0.964588H50.562V5.87012H49.9761V0.964588Z" fill="#231916" stroke="#231916" stroke-width="0.392563"/>
<path d="M57.562 5.87012V0.964587H58.1879L60.7374 4.89322V0.964587H61.303V5.87012H60.7243L58.1489 1.8421V5.87012H57.562Z" fill="#231916" stroke="#231916" stroke-width="0.392563"/>
<path d="M73.2629 3.35117C73.232 4.10457 72.9837 4.71369 72.518 5.17855C72.0573 5.63929 71.475 5.87012 70.7737 5.87012C70.4129 5.87012 70.0784 5.79959 69.772 5.65715C69.4597 5.51609 69.1815 5.30725 68.935 5.03291C68.7285 4.79293 68.5705 4.52729 68.4616 4.23509C68.3558 3.93786 68.3027 3.62322 68.3027 3.29118C68.3027 2.94127 68.3658 2.61335 68.4934 2.30741C68.6255 1.99781 68.817 1.72027 69.0671 1.47616C69.3081 1.23297 69.5723 1.05161 69.8569 0.931612C70.1478 0.817115 70.4723 0.75895 70.8323 0.75895C71.3243 0.75895 71.755 0.869784 72.1227 1.09145C72.4881 1.31266 72.7577 1.62455 72.9329 2.02804H72.1758C72.0183 1.81507 71.8154 1.65432 71.5703 1.54349C71.3284 1.43265 71.0624 1.37678 70.7737 1.37678C70.5273 1.37678 70.2921 1.42349 70.0679 1.51647C69.8392 1.60944 69.644 1.74454 69.4819 1.92179C69.2931 2.10773 69.1501 2.32344 69.0539 2.56664C68.9572 2.80204 68.9091 3.04524 68.9091 3.29759C68.9091 3.55956 68.9527 3.81191 69.0403 4.0551C69.1324 4.29509 69.2623 4.50348 69.4297 4.68026C69.6086 4.86208 69.8169 5.00406 70.0557 5.10527C70.2921 5.21199 70.5313 5.26557 70.7737 5.26557C71.1681 5.26557 71.5235 5.16069 71.8399 4.95231C72.1998 4.71781 72.4377 4.38348 72.5521 3.94885H70.8055V3.35117H73.2629Z" fill="#231916" stroke="#231916" stroke-width="0.392563"/>
</svg>
