<svg width="60" height="27" viewBox="0 0 60 27" fill="none" xmlns="http://www.w3.org/2000/svg">
<path d="M5.30881 25.3125C2.94365 25.3125 1.02631 23.3952 1.02631 21.03V0.554278H12.7497V3.37287H3.80111V11.4907H12.7497V14.2426H3.80111V22.3938H12.7497V25.3125H5.30881Z" fill="black"/>
<path d="M25.6621 25.3125C23.297 25.3125 21.3796 23.3952 21.3796 21.03V0.554278H24.2935V22.3941H32.4134V25.3125H25.6621Z" fill="black"/>
<path d="M54.0894 23.7026C52.2522 24.7762 50.1454 25.3125 47.7673 25.3125C45.9732 25.3125 44.3203 24.9691 42.8083 24.2822C41.3169 23.6175 39.9552 22.6082 38.7235 21.2562C37.6637 20.0976 36.8756 18.8093 36.3566 17.3928C35.8377 15.9758 35.5789 14.4524 35.5789 12.8207C35.5789 11.1467 35.8915 9.55863 36.519 8.05612C37.1456 6.575 38.0749 5.23416 39.3066 4.0319C40.5168 2.87241 41.8139 2.00375 43.1968 1.42422C44.6235 0.844257 46.1468 0.554277 47.7673 0.554277C50.21 0.554277 52.3598 1.10173 54.219 2.19664C56.0557 3.31294 57.4287 4.85821 58.3361 6.8329H54.8676C54.0454 5.75938 53.0196 4.94418 51.7879 4.38603C50.5558 3.82831 49.216 3.54903 47.7673 3.54903C46.5572 3.54903 45.4013 3.774 44.2997 4.22479C43.1528 4.67601 42.1705 5.34109 41.3488 6.22044C40.4414 7.10107 39.7498 8.13182 39.2748 9.31142C38.7984 10.45 38.5612 11.6295 38.5612 12.8532C38.5612 14.1414 38.7765 15.3642 39.2097 16.5237C39.6632 17.7042 40.3118 18.7127 41.1546 19.5497C42.0185 20.4299 43.0452 21.1168 44.2338 21.6103C45.4013 22.1253 46.5791 22.3828 47.7673 22.3828C49.1941 22.3828 50.5119 22.1039 51.7225 21.5462C52.9111 21.0098 53.8732 20.2695 54.6083 19.3247H58.2387C57.2663 21.1916 55.8826 22.6518 54.0894 23.7026Z" fill="black"/>
</svg>
