<svg width="57" height="24" viewBox="0 0 57 24" fill="none" xmlns="http://www.w3.org/2000/svg">
<path d="M4.93318 23.5195C2.73559 23.5195 0.954102 21.738 0.954102 19.5405V0.515486H11.8469V3.13437H3.5323V10.6771H11.8469V13.234H3.5323V20.8077H11.8469V23.5195H4.93318Z" fill="black"/>
<path d="M24.8443 23.5195C22.6467 23.5195 20.8652 21.738 20.8652 19.5405V0.515486H23.5726V20.8079H31.1173V23.5195H24.8443Z" fill="black"/>
<path d="M52.2576 22.0237C50.5506 23.0212 48.5931 23.5195 46.3835 23.5195C44.7165 23.5195 43.1807 23.2004 41.7758 22.5622C40.3901 21.9447 39.1249 21.0068 37.9804 19.7506C36.9957 18.6741 36.2634 17.4771 35.7813 16.161C35.2991 14.8444 35.0586 13.4289 35.0586 11.9128C35.0586 10.3574 35.3491 8.88186 35.9321 7.48581C36.5143 6.10962 37.3778 4.86379 38.5222 3.74671C39.6466 2.66937 40.8519 1.86226 42.1367 1.32379C43.4624 0.78492 44.8777 0.515486 46.3835 0.515486C48.6531 0.515486 50.6506 1.02415 52.378 2.04148C54.0846 3.07869 55.3603 4.51448 56.2034 6.34925H52.9806C52.2168 5.35179 51.2636 4.59435 50.1192 4.07575C48.9744 3.55755 47.7296 3.29805 46.3835 3.29805C45.2591 3.29805 44.1851 3.50708 43.1615 3.92594C42.0959 4.34519 41.1832 4.96314 40.4197 5.78018C39.5766 6.59842 38.934 7.55615 38.4926 8.65216C38.0501 9.71003 37.8296 10.806 37.8296 11.943C37.8296 13.14 38.0297 14.2761 38.4322 15.3534C38.8536 16.4503 39.4562 17.3873 40.2393 18.165C41.0419 18.9829 41.9959 19.6211 43.1003 20.0797C44.1851 20.5581 45.2795 20.7974 46.3835 20.7974C47.7091 20.7974 48.9336 20.5383 50.0584 20.0201C51.1628 19.5217 52.0567 18.8338 52.7398 17.956H56.113C55.2095 19.6906 53.9238 21.0473 52.2576 22.0237Z" fill="black"/>
</svg>
