<svg width="21" height="12" viewBox="0 0 21 12" fill="none" xmlns="http://www.w3.org/2000/svg">
<path d="M19.354 4.0153C19.9154 4.59757 20.1976 5.38688 20.1976 6.40909V11.2452H18.1833V6.66141C18.1833 5.60684 17.5739 5.03751 16.6373 5.03751C15.5917 5.03751 14.9181 5.68448 14.9181 6.99136V11.2452H12.9038V0.0332031H14.9181V4.25144C15.4024 3.51066 16.1819 3.14836 17.2467 3.14836C18.1063 3.14836 18.8088 3.43303 19.354 4.0153Z" fill="#FEE500"/>
<path d="M8.85263 7.04873C8.47095 8.43648 7.19758 9.33253 5.71252 9.33253C3.76558 9.33253 2.1458 7.82186 2.1458 5.73215C2.1458 3.64244 3.56992 2.10265 5.71252 2.10265C7.22644 2.10265 8.54151 3.02135 8.87509 4.49644H11.069C10.5558 1.7824 8.48378 0 5.71252 0C2.52428 0 0 2.39702 0 5.73215C0 9.06728 2.52749 11.4643 5.71252 11.4643C8.45491 11.4643 10.5141 9.71425 11.053 7.04873H8.85263Z" fill="#FEE500"/>
</svg>
