<svg width="32" height="32" viewBox="0 0 32 32" fill="none" xmlns="http://www.w3.org/2000/svg">
<path d="M12.9082 22.3271C14.2901 22.3271 15.4109 23.4473 15.4111 24.8291C15.4111 26.2111 14.2902 27.332 12.9082 27.332C11.5264 27.3318 10.4062 26.211 10.4062 24.8291C10.4065 23.4474 11.5265 22.3274 12.9082 22.3271ZM21.7129 22.3271C23.0948 22.3271 24.2156 23.4473 24.2158 24.8291C24.2158 26.2111 23.0949 27.332 21.7129 27.332C20.3311 27.3318 19.2109 26.211 19.2109 24.8291C19.2112 23.4474 20.3312 22.3274 21.7129 22.3271ZM12.9082 23.8271C12.355 23.8274 11.9065 24.2758 11.9062 24.8291C11.9062 25.3483 12.3009 25.776 12.8066 25.8271L12.9082 25.832C13.4274 25.832 13.8551 25.4373 13.9062 24.9316L13.9111 24.8291C13.9109 24.2757 13.4617 23.8271 12.9082 23.8271ZM21.7129 23.8271C21.1596 23.8274 20.7112 24.2758 20.7109 24.8291C20.7109 25.3483 21.1056 25.776 21.6113 25.8271L21.7129 25.832C22.2321 25.832 22.6598 25.4373 22.7109 24.9316L22.7158 24.8291C22.7156 24.2757 22.2664 23.8271 21.7129 23.8271ZM7.9834 5.01367C8.31237 5.07168 8.58125 5.32334 8.65332 5.65918L9.58594 10.0127H25.9229C26.1751 10.013 26.4143 10.1275 26.5723 10.3242C26.7302 10.5212 26.7909 10.7799 26.7363 11.0264L25.082 18.4746C24.943 19.1045 24.5932 19.6685 24.0908 20.0732C23.5879 20.4781 22.9611 20.6999 22.3154 20.7012H12.5098V20.7002C11.8565 20.7104 11.2191 20.496 10.7061 20.0908C10.2528 19.7328 9.92153 19.2457 9.75293 18.6973L9.69043 18.459L8.10254 11.0469C8.09786 11.028 8.09418 11.0087 8.09082 10.9893L7.16504 6.66699H5.83398C5.37375 6.66699 5 6.29422 5 5.83398C5 5.37375 5.37375 5.00098 5.83398 5.00098H7.83887L7.9834 5.01367ZM11.3203 18.1094L11.3457 18.208C11.4153 18.4342 11.5523 18.6355 11.7393 18.7832C11.9529 18.9518 12.2191 19.0411 12.4912 19.0352C12.4971 19.035 12.5039 19.0342 12.5098 19.0342H22.3125C22.5789 19.0336 22.8374 18.9424 23.0449 18.7754C23.2523 18.6083 23.3967 18.3753 23.4541 18.1152L23.4551 18.1133L24.8838 11.6797H9.94336L11.3203 18.1094Z" fill="black"/>
</svg>
