<svg width="123" height="69" viewBox="0 0 123 69" fill="none" xmlns="http://www.w3.org/2000/svg">
<path d="M40.2484 57.8701V52.9646H40.8353V57.2912H42.4684V57.8701H40.2484Z" fill="#231916" stroke="#231916" stroke-width="0.392563"/>
<path d="M49.4681 52.9646H50.055V57.8701H49.4681V52.9646Z" fill="#231916" stroke="#231916" stroke-width="0.392563"/>
<path d="M62.0152 55.3512C61.9843 56.1046 61.736 56.7137 61.2703 57.1786C60.8096 57.6393 60.2277 57.8701 59.5251 57.8701C59.1652 57.8701 58.8307 57.7996 58.5243 57.6572C58.212 57.5161 57.9338 57.3072 57.6873 57.0329C57.4808 56.7929 57.3228 56.5273 57.213 56.2351C57.1072 55.9379 57.055 55.6232 57.055 55.2912C57.055 54.9413 57.119 54.6134 57.2457 54.3074C57.3778 53.9978 57.5684 53.7203 57.8194 53.4762C58.0604 53.233 58.3237 53.0516 58.6101 52.9316C58.8992 52.8171 59.2246 52.759 59.5846 52.759C60.0766 52.759 60.5064 52.8698 60.875 53.0915C61.2395 53.3127 61.51 53.6246 61.6852 54.028H60.9281C60.7706 53.8151 60.5682 53.6543 60.3222 53.5435C60.0807 53.4327 59.8147 53.3768 59.5251 53.3768C59.2796 53.3768 59.0444 53.4235 58.8202 53.5165C58.5924 53.6094 58.3963 53.7445 58.2343 53.9218C58.0454 54.1077 57.9025 54.3234 57.8062 54.5666C57.7096 54.802 57.6614 55.0452 57.6614 55.2976C57.6614 55.5596 57.705 55.8119 57.7926 56.0551C57.8848 56.2951 58.0146 56.5035 58.1821 56.6803C58.3618 56.8621 58.5701 57.0041 58.8071 57.1053C59.0444 57.212 59.2837 57.2656 59.5251 57.2656C59.9205 57.2656 60.2759 57.1607 60.5922 56.9523C60.9522 56.7178 61.19 56.3835 61.3035 55.9488H59.5578V55.3512H62.0152Z" fill="#231916" stroke="#231916" stroke-width="0.392563"/>
<path d="M69.0155 57.8701V52.9646H69.6024V55.0049H71.7956V52.9646H72.3684V57.8701H71.7956V55.6035H69.6024V57.8701H69.0155Z" fill="#231916" stroke="#231916" stroke-width="0.392563"/>
<path d="M80.3898 57.8701V53.5229H79.3685V52.9646H81.9766V53.5229H80.9626V57.8701H80.3898Z" fill="#231916" stroke="#231916" stroke-width="0.392563"/>
<path d="M88.9764 52.9646H89.5624V57.8701H88.9764V52.9646Z" fill="#231916" stroke="#231916" stroke-width="0.392563"/>
<path d="M96.5624 57.8701V52.9646H97.1883L99.7378 56.8932V52.9646H100.303V57.8701H99.7246L97.1493 53.8421V57.8701H96.5624Z" fill="#231916" stroke="#231916" stroke-width="0.392563"/>
<path d="M112.263 55.3512C112.232 56.1046 111.984 56.7137 111.518 57.1786C111.058 57.6393 110.475 57.8701 109.774 57.8701C109.413 57.8701 109.079 57.7996 108.772 57.6572C108.46 57.5161 108.182 57.3072 107.935 57.0329C107.729 56.7929 107.571 56.5273 107.462 56.2351C107.356 55.9379 107.303 55.6232 107.303 55.2912C107.303 54.9413 107.366 54.6134 107.494 54.3074C107.626 53.9978 107.817 53.7203 108.067 53.4762C108.308 53.233 108.573 53.0516 108.857 52.9316C109.148 52.8171 109.473 52.759 109.833 52.759C110.325 52.759 110.755 52.8698 111.123 53.0915C111.488 53.3127 111.758 53.6246 111.933 54.028H111.176C111.019 53.8151 110.816 53.6543 110.571 53.5435C110.329 53.4327 110.063 53.3768 109.774 53.3768C109.528 53.3768 109.292 53.4235 109.068 53.5165C108.84 53.6094 108.644 53.7445 108.482 53.9218C108.293 54.1077 108.151 54.3234 108.054 54.5666C107.958 54.802 107.909 55.0452 107.909 55.2976C107.909 55.5596 107.953 55.8119 108.041 56.0551C108.133 56.2951 108.263 56.5035 108.43 56.6803C108.609 56.8621 108.817 57.0041 109.056 57.1053C109.292 57.212 109.532 57.2656 109.774 57.2656C110.169 57.2656 110.524 57.1607 110.84 56.9523C111.2 56.7178 111.438 56.3835 111.552 55.9488H109.806V55.3512H112.263Z" fill="#231916" stroke="#231916" stroke-width="0.392563"/>
<path d="M60.9335 44.5195C58.736 44.5195 56.9545 42.738 56.9545 40.5405V21.5155H67.8472V24.1344H59.5327V31.6771H67.8472V34.234H59.5327V41.8077H67.8472V44.5195H60.9335Z" fill="black"/>
<path d="M80.8447 44.5195C78.6471 44.5195 76.8656 42.738 76.8656 40.5405V21.5155H79.573V41.8079H87.1176V44.5195H80.8447Z" fill="black"/>
<path d="M108.258 43.0237C106.551 44.0212 104.593 44.5195 102.384 44.5195C100.717 44.5195 99.1811 44.2004 97.7762 43.5622C96.3905 42.9447 95.1252 42.0068 93.9808 40.7506C92.996 39.6741 92.2638 38.4771 91.7816 37.161C91.2994 35.8444 91.059 34.4289 91.059 32.9128C91.059 31.3574 91.3495 29.8819 91.9325 28.4858C92.5147 27.1096 93.3782 25.8638 94.5226 24.7467C95.647 23.6694 96.8522 22.8623 98.1371 22.3238C99.4628 21.7849 100.878 21.5155 102.384 21.5155C104.653 21.5155 106.651 22.0242 108.378 23.0415C110.085 24.0787 111.361 25.5145 112.204 27.3493H108.981C108.217 26.3518 107.264 25.5944 106.12 25.0758C104.975 24.5576 103.73 24.2981 102.384 24.2981C101.259 24.2981 100.185 24.5071 99.1619 24.9259C98.0963 25.3452 97.1836 25.9631 96.4201 26.7802C95.577 27.5984 94.9343 28.5561 94.493 29.6522C94.0504 30.71 93.83 31.806 93.83 32.943C93.83 34.14 94.03 35.2761 94.4326 36.3534C94.8539 37.4503 95.4565 38.3873 96.2396 39.165C97.0423 39.9829 97.9963 40.6211 99.1006 41.0797C100.185 41.5581 101.28 41.7974 102.384 41.7974C103.71 41.7974 104.934 41.5383 106.059 41.0201C107.163 40.5217 108.057 39.8338 108.74 38.956H112.113C111.21 40.6906 109.924 42.0473 108.258 43.0237Z" fill="black"/>
<circle cx="24.9423" cy="25.7308" r="15.5362" transform="rotate(15 24.9423 25.7308)" fill="#FFC600"/>
<path d="M32.0329 8.77196C34.7341 8.77198 37.2853 9.23927 39.6849 10.1732L39.6837 10.1739C41.5415 10.887 43.1849 11.8619 44.6114 13.1018L44.727 13.2025L44.6127 13.3044L41.9231 15.7128L41.8366 15.7907L41.7466 15.715C40.7145 14.8431 39.5244 14.1351 38.1758 13.5905C36.2114 12.7973 34.1634 12.4003 32.0323 12.4003C30.0692 12.4004 28.2585 12.7647 26.5988 13.4921L26.5964 13.4935C24.9342 14.1905 23.472 15.172 22.209 16.4388C20.9799 17.6733 20.0164 19.1304 19.3179 20.8102C18.6203 22.488 18.2708 24.2932 18.2707 26.2277C18.2707 28.1622 18.6194 29.9681 19.3171 31.646C20.0153 33.325 20.9792 34.7969 22.2079 36.0633L22.4468 36.2921C23.6549 37.421 25.0386 38.3272 26.5985 39.011L26.5975 39.0108C28.2577 39.7067 30.069 40.0557 32.0328 40.0557C34.363 40.0557 36.4384 39.5636 38.2628 38.5838L38.264 38.5831C40.1241 37.6018 41.6173 36.2577 42.7457 34.5499L42.7459 34.549C43.8813 32.8487 44.5562 30.9522 44.7725 28.8571L34.6713 28.858L34.536 28.8571L34.5366 28.7228L34.5363 25.4602L34.536 25.3256L34.6715 25.3255L48.8256 25.3258L48.9561 25.3254L48.9608 25.4551L48.9603 25.457C48.9603 25.4583 48.9606 25.4605 48.9606 25.4631C48.9608 25.4682 48.9614 25.4758 48.9617 25.4856C48.9624 25.5056 48.9633 25.5355 48.9645 25.5733C48.9668 25.6489 48.9698 25.7583 48.9728 25.893C48.9789 26.1629 48.9845 26.5358 48.9845 26.9476C48.9845 29.1521 48.6136 31.2173 47.8697 33.1416L47.7155 33.5249C46.8694 35.5243 45.6673 37.2981 44.1111 38.8456C42.5879 40.3616 40.7945 41.5549 38.7318 42.4249L38.7294 42.4263C36.6646 43.2649 34.4315 43.6831 32.0324 43.6831C29.4988 43.683 27.1482 43.2327 24.9823 42.3298C22.8191 41.428 20.9082 40.1874 19.2512 38.6084L19.2498 38.606C17.6265 36.9947 16.3578 35.1416 15.4446 33.047L15.444 33.0458C14.5302 30.9172 14.0741 28.6437 14.0741 26.2274C14.0741 23.8112 14.5304 21.5538 15.4444 19.4569C16.3576 17.3301 17.6266 15.4759 19.2507 13.8961C20.9077 12.2849 22.8187 11.0281 24.9823 10.1261C27.1483 9.22309 29.4991 8.77196 32.0329 8.77196Z" fill="black" stroke="black" stroke-width="0.269429"/>
<path d="M26.7585 55.1604C27.3333 55.3145 27.6747 55.9061 27.5209 56.4809C27.2354 57.5461 26.4961 58.2273 25.6277 58.5507C24.7961 58.8602 23.8663 58.841 23.0506 58.6224C22.2351 58.4038 21.4209 57.9557 20.8556 57.272C20.2652 56.5578 19.9655 55.5982 20.251 54.5329C20.4052 53.9582 20.9966 53.6165 21.5714 53.7706C22.1461 53.9246 22.4866 54.516 22.3328 55.0907C22.2476 55.4085 22.3201 55.6603 22.5168 55.8983C22.7386 56.1665 23.1276 56.4117 23.6084 56.5406C24.0895 56.6695 24.5497 56.6519 24.8759 56.5304C25.1652 56.4227 25.353 56.2406 25.4381 55.9228C25.5923 55.3481 26.1837 55.0064 26.7585 55.1604ZM21.089 41.7912C21.348 41.8477 21.5589 41.9812 21.7219 42.1913C21.9047 42.4059 21.9584 42.6905 21.8814 43.0449L21.2677 49.5157C21.2561 49.6389 21.2635 49.7631 21.2905 49.8838L21.3028 49.9396C21.6 51.2675 24.6062 52.0521 25.6921 52.2885C27.1811 52.6125 29.2746 52.3007 29.595 52.3698C29.914 52.4393 30.1389 52.6709 30.215 52.8332C30.312 53.0402 30.3731 53.2598 30.3233 53.489C30.2689 53.7393 30.1382 53.9517 29.9334 54.1256C29.0134 54.9276 25.7772 54.2845 24.8064 54.0732C23.256 53.7357 21.3402 52.9999 19.9892 52.099C19.5113 51.7803 19.1754 51.2889 19.0524 50.7278L19.0295 50.6246C18.9716 50.3606 18.9576 50.0883 18.9874 49.8197L19.7872 42.5899C19.8644 42.2353 20.0305 41.9976 20.2862 41.8784C20.5617 41.7637 20.8298 41.7348 21.089 41.7912ZM30.3368 48.847C30.9031 48.6701 31.5069 48.9841 31.6861 49.5503C31.8649 50.1171 31.5506 50.722 30.9842 50.902L30.7484 50.1594C30.9666 50.849 30.9821 50.8991 30.983 50.9027L30.9808 50.9031C30.98 50.9034 30.9785 50.9039 30.9775 50.9042C30.9753 50.9049 30.9718 50.9052 30.9689 50.906C30.9632 50.9078 30.9561 50.911 30.9477 50.9135C30.9305 50.9186 30.9069 50.9248 30.879 50.9324C30.823 50.9478 30.7456 50.968 30.6492 50.9902C30.4557 51.0347 30.1826 51.0883 29.8437 51.1322C29.1665 51.22 28.2166 51.2697 27.0998 51.1249C25.9888 50.9808 24.9797 50.6783 24.2572 50.4179C23.8939 50.2869 23.5962 50.1638 23.3873 50.0725C23.2832 50.0271 23.2001 49.9896 23.1418 49.9623C23.113 49.9488 23.0894 49.9377 23.0727 49.9296C23.0646 49.9257 23.0573 49.9216 23.0523 49.9191C23.0502 49.9181 23.0476 49.9171 23.0459 49.9164L23.0434 49.9147L23.0415 49.9142L23.0417 49.9132C22.5093 49.6478 22.2921 49.0017 22.5572 48.4691C22.8059 47.9696 23.3908 47.7479 23.9019 47.9407L24.0025 47.9838C24.0041 47.9848 24.0071 47.9872 24.0112 47.9892C24.0204 47.9937 24.0363 48.0009 24.057 48.0106C24.0993 48.0304 24.1647 48.0604 24.2501 48.0977C24.4222 48.1729 24.6759 48.2779 24.9885 48.3906C25.6191 48.6179 26.4693 48.8692 27.3764 48.987C28.278 49.1039 29.0394 49.064 29.567 48.9956C29.8301 48.9615 30.0344 48.9207 30.1664 48.8903C30.2315 48.8754 30.2791 48.8621 30.3075 48.8543C30.321 48.8506 30.3308 48.8469 30.3351 48.8456C30.3362 48.8453 30.3377 48.8454 30.3382 48.8454L30.3361 48.8458L30.3368 48.847ZM31.8261 45.3941C32.3931 45.2152 32.9983 45.5283 33.1781 46.0951C33.3575 46.6623 33.0428 47.2689 32.4757 47.4487L32.1735 46.4972C32.4502 47.3716 32.4731 47.4426 32.4747 47.4484L32.4735 47.4491L32.4733 47.45L32.4702 47.4502C32.4679 47.4509 32.4644 47.452 32.4614 47.4529C32.4552 47.4548 32.4466 47.4569 32.4373 47.4596C32.4184 47.4652 32.3927 47.4733 32.3616 47.4818C32.2991 47.499 32.2119 47.5208 32.1028 47.5459C31.8841 47.5962 31.5744 47.6584 31.1888 47.7084C30.418 47.8083 29.3349 47.8646 28.0611 47.6994C26.7933 47.535 25.6404 47.1901 24.8128 46.8917C24.3971 46.7418 24.0572 46.6011 23.8186 46.4969C23.6993 46.4448 23.6032 46.4019 23.5369 46.3709L23.4378 46.3221C23.4353 46.3208 23.4325 46.3191 23.4308 46.3182L23.427 46.3172C23.4286 46.3134 23.4572 46.2555 23.907 45.3519L23.426 46.3169C22.8934 46.0516 22.6768 45.4036 22.942 44.8709C23.1908 44.372 23.775 44.1498 24.2858 44.3422L24.3868 44.3875L24.3878 44.3878C24.3899 44.3888 24.3938 44.3904 24.3986 44.3927C24.4098 44.3981 24.4285 44.4069 24.4534 44.4185C24.5035 44.442 24.5809 44.4781 24.6814 44.5221C24.8832 44.6102 25.1792 44.7329 25.5441 44.8644C26.2799 45.1297 27.2747 45.4237 28.3387 45.5617C29.397 45.6989 30.2905 45.6502 30.9116 45.5697C31.2214 45.5295 31.4628 45.4823 31.6201 45.4461C31.6983 45.4281 31.7563 45.4135 31.7911 45.404C31.808 45.3993 31.8202 45.3959 31.8261 45.3941Z" fill="black"/>
</svg>
